<svg height="25" xmlns="http://www.w3.org/2000/svg" version="1.1" xmlns:xlink="http://www.w3.org/1999/xlink" xmlns:svgjs="http://svgjs.com/svgjs" x="0" y="0" viewBox="0 0 491.726 491.726" style="enable-background:new 0 0 512 512" xml:space="preserve"><g><g><path d="m371.139 252.649c-4.108.061-8.184.729-12.096 1.983-7.688-21.698-31.511-33.056-53.21-25.367-1.416.502-2.804 1.08-4.158 1.732-7.9-10.678-20.384-16.993-33.667-17.03-3.164.021-6.316.406-9.392 1.147v-75.005c-.459-23.296-19.717-41.809-43.014-41.35-22.649.447-40.904 18.701-41.35 41.35v160.467c-22.193-21.282-56.563-23.276-81.069-4.704-15.663 11.745-19.432 33.675-8.589 49.976l58.04 87.068c24.465 36.78 65.727 58.86 109.901 58.81h29.504c52.849.038 100.622-31.463 121.407-80.053 6.56-15.325 9.918-31.83 9.867-48.501v-68.35c-.028-23.28-18.894-42.146-42.174-42.173zm9.392 110.523c.022 12.235-2.46 24.345-7.294 35.585-15.623 36.537-51.544 60.222-91.281 60.187h-29.504c-33.218.026-64.24-16.59-82.626-44.255l-57.958-87.035c-1.2-1.822-.776-4.262.967-5.573 12.989-9.837 31.459-7.485 41.567 5.294l23.423 29.258c5.654 7.07 15.968 8.218 23.038 2.565 3.887-3.109 6.152-7.815 6.154-12.793v-206.296c.217-5.192 4.601-9.224 9.793-9.007 4.888.204 8.803 4.12 9.007 9.007v141.814c0 9.052 7.338 16.391 16.391 16.391s16.391-7.338 16.391-16.391v-25.783c-.003-5.187 4.2-9.394 9.387-9.397s9.394 4.2 9.397 9.387v.009 38.682c0 9.052 7.338 16.391 16.391 16.391 9.052 0 16.391-7.338 16.391-16.391v-25.781c.217-5.192 4.601-9.224 9.793-9.007 4.888.204 8.803 4.12 9.007 9.007v38.682c0 9.052 7.338 16.391 16.391 16.391 9.052 0 16.391-7.338 16.391-16.391v-12.9c-.003-5.187 4.2-9.394 9.387-9.397s9.394 4.2 9.397 9.387v.009z" fill="currentColor" data-original="#000000"></path><path d="m216.622 81.954c9.052 0 16.391-7.338 16.391-16.391v-49.172c0-9.053-7.338-16.391-16.391-16.391s-16.391 7.338-16.391 16.391v49.173c0 9.052 7.339 16.39 16.391 16.39z" fill="currentColor" data-original="#000000"></path><path d="m265.795 98.345c4.347-.001 8.515-1.728 11.588-4.803l34.765-34.765c6.511-6.289 6.692-16.665.403-23.177-6.289-6.511-16.665-6.692-23.177-.403-.137.132-.271.266-.403.403l-34.765 34.765c-6.4 6.402-6.398 16.78.003 23.18 3.074 3.073 7.241 4.799 11.586 4.8z" fill="currentColor" data-original="#000000"></path><path d="m155.861 93.543c6.511 6.289 16.888 6.109 23.177-.402 6.135-6.352 6.135-16.422 0-22.774l-34.765-34.765c-6.511-6.289-16.888-6.108-23.177.403-6.135 6.352-6.135 16.422 0 22.774z" fill="currentColor" data-original="#000000"></path><path d="m101.886 147.518h49.173c9.052 0 16.391-7.338 16.391-16.391s-7.338-16.391-16.391-16.391h-49.173c-9.052 0-16.391 7.338-16.391 16.391s7.339 16.391 16.391 16.391z" fill="currentColor" data-original="#000000"></path><path d="m265.795 131.127c0 9.052 7.338 16.391 16.391 16.391h49.173c9.052 0 16.391-7.338 16.391-16.391s-7.338-16.391-16.391-16.391h-49.173c-9.053 0-16.391 7.338-16.391 16.391z" fill="currentColor" data-original="#000000"></path></g></g></svg>